<svg id="Capa_1" enable-background="new 0 0 512 512" height="512" viewBox="0 0 512 512" width="512" xmlns="http://www.w3.org/2000/svg"><g><path d="m296 426h98.857l57.071 57.071c2.861 2.861 7.161 3.714 10.898 2.168 3.736-1.548 6.173-5.194 6.173-9.239v-50h33c5.522 0 10-4.478 10-10v-300c0-5.522-4.478-10-10-10h-205.999c-16.542 0-30 13.458-30 30v260c0 16.542 13.458 30 30 30zm30-300h166v240h-166zm-40 10c0-5.514 4.486-10 10-10h10v240h-10c-3.505 0-6.871.604-10 1.714zm10 250h196v20h-33c-5.522 0-10 4.478-10 10v35.857l-42.929-42.929c-1.876-1.874-4.419-2.928-7.071-2.928h-103c-5.514 0-10-4.486-10-10s4.486-10 10-10z"/><path d="m417.944 191.528c-1.694-3.388-5.156-5.528-8.944-5.528s-7.25 2.14-8.944 5.528l-50 100c-2.47 4.939-.468 10.946 4.473 13.416 4.938 2.469 10.946.468 13.416-4.473l7.235-14.471h67.64l7.236 14.472c2.474 4.95 8.487 6.939 13.416 4.473 4.94-2.47 6.942-8.477 4.473-13.416zm-32.764 74.472 23.82-47.64 23.82 47.64z"/><path d="m183 156c0-27.57-22.43-50-50-50s-50 22.43-50 50v20c0 27.57 22.43 50 50 50 9.953 0 19.463-2.896 27.574-8.283l5.354 5.354c3.907 3.905 10.236 3.904 14.143 0 3.905-3.905 3.905-10.237 0-14.143l-5.354-5.354c5.387-8.111 8.283-17.621 8.283-27.574zm-20 20c0 4.551-1.011 8.947-2.922 12.936l-20.007-20.007c-3.906-3.904-10.236-3.904-14.143 0-3.905 3.905-3.905 10.237 0 14.143l20.007 20.007c-3.988 1.91-8.384 2.921-12.935 2.921-16.542 0-30-13.458-30-30v-20c0-16.542 13.458-30 30-30s30 13.458 30 30z"/><circle cx="143" cy="36" r="10"/><path d="m30 346h10v50c0 4.045 2.437 7.691 6.173 9.239 3.738 1.546 8.038.692 10.898-2.168l57.072-57.071h121.857c5.522 0 10-4.478 10-10v-300c0-5.522-4.478-10-10-10h-48c-5.522 0-10 4.478-10 10s4.478 10 10 10h38v240h-166v-240h38c5.522 0 10-4.478 10-10s-4.478-10-10-10h-68c-16.542 0-30 13.458-30 30v260c0 16.542 13.458 30 30 30zm-10-290c0-5.514 4.486-10 10-10h10v240h-10c-3.506 0-6.87.61-10 1.72zm10 250h196v20h-116c-2.652 0-5.195 1.054-7.071 2.929l-42.929 42.928v-35.857c0-5.522-4.478-10-10-10h-20c-5.514 0-10-4.486-10-10s4.486-10 10-10z"/></g></svg>