<svg id="Capa_1" enable-background="new 0 0 512 512" height="512" viewBox="0 0 512 512" width="512" xmlns="http://www.w3.org/2000/svg"><g><path d="m474.5 60h-30v180l60-52.5v-97.5c0-16.569-13.431-30-30-30z" fill="#e33a38"/><path d="m7.5 90v97.5l467 109.95v-207.45c0-16.569-13.431-30-30-30h-407c-16.569 0-30 13.431-30 30z" fill="#ff443b"/><path d="m444.5 444.5v60h30c16.569 0 30-13.431 30-30v-30z" fill="#8ae7ff"/><path d="m474.5 474.5v-30h-467v30c0 16.569 13.431 30 30 30h407c16.569 0 30-13.431 30-30z" fill="#bdf2ff"/><path d="m474.5 187.5-105 143.5 105 143.5c16.569 0 30-13.431 30-30v-257z" fill="#8ae7ff"/><path d="m474.5 474.5v-287l-467 227v30c0 16.569 13.431 30 30 30z" fill="#bdf2ff"/><path d="m300.5 240.5 12.43 186.43 174-174z" fill="#fff"/><path d="m474.5 187.5-60 83h30c16.57 0 31.57-6.72 42.43-17.57 10.85-10.86 17.57-25.86 17.57-42.43v-23z" fill="#bdf2ff"/><path d="m474.5 187.5v23c0 33.137-26.863 60-60 60h-54c-16.569 0-30 13.431-30 30v84c0 16.57-6.72 31.57-17.57 42.43-10.86 10.85-25.86 17.57-42.43 17.57h-233c-16.569 0-30-13.431-30-30v-227z" fill="#e5faff"/><path d="m369.5 90v30c0 12.426 10.074 22.5 22.5 22.5s22.5-10.074 22.5-22.5v-30z" fill="#e33a38"/><path d="m392 7.5c-12.426 0-22.5 10.074-22.5 22.5v60c0 12.426 10.074 22.5 22.5 22.5s22.5-10.074 22.5-22.5v-60c0-12.426-10.074-22.5-22.5-22.5z" fill="#acd5df"/><path d="m97.5 90v30c0 12.426 10.074 22.5 22.5 22.5s22.5-10.074 22.5-22.5v-30z" fill="#e33a38"/><path d="m120 7.5c-12.426 0-22.5 10.074-22.5 22.5v60c0 12.426 10.074 22.5 22.5 22.5s22.5-10.074 22.5-22.5v-60c0-12.426-10.074-22.5-22.5-22.5z" fill="#acd5df"/><path d="m474.5 52.5h-52.5v-22.5c0-16.542-13.458-30-30-30s-30 13.458-30 30v22.5h-212v-22.5c0-16.542-13.458-30-30-30s-30 13.458-30 30v22.5h-52.5c-20.678 0-37.5 16.822-37.5 37.5v97.5c0 4.142 3.358 7.5 7.5 7.5h489.5v15.5c0 28.949-23.552 52.5-52.5 52.5h-84c-20.678 0-37.5 16.822-37.5 37.5v84c0 28.949-23.552 52.5-52.5 52.5h-233c-12.407 0-22.5-10.093-22.5-22.5v-197c0-4.142-3.358-7.5-7.5-7.5s-7.5 3.358-7.5 7.5v257c0 20.678 16.822 37.5 37.5 37.5h437c20.678 0 37.5-16.822 37.5-37.5v-384.5c0-20.678-16.822-37.5-37.5-37.5zm-136.5 248c0-12.407 10.094-22.5 22.5-22.5h84c2.407 0 4.783-.132 7.125-.379l-114.004 114.004c.247-2.342.379-4.718.379-7.125zm136.5 196.5h-437c-12.407 0-22.5-10.093-22.5-22.5 6.272 4.699 14.064 7.5 22.5 7.5h437c8.436 0 16.228-2.801 22.5-7.52 0 12.427-10.094 22.52-22.5 22.52zm22.5-52.5c0 12.407-10.094 22.5-22.5 22.5h-437c-12.407 0-22.5-10.093-22.5-22.5 6.272 4.699 14.064 7.5 22.5 7.5h233c18.61 0 35.485-7.57 47.708-19.793.023.023 174.023-173.977 174.023-173.977 1.67-1.715 3.263-3.505 4.77-5.369v191.639zm-120-328.536c4.416 2.561 9.538 4.036 15 4.036s10.584-1.475 15-4.036v4.036c0 8.271-6.729 15-15 15s-15-6.729-15-15zm0-85.964c0-8.271 6.729-15 15-15s15 6.729 15 15v60c0 8.271-6.729 15-15 15s-15-6.729-15-15zm-272 85.964c4.416 2.561 9.538 4.036 15 4.036s10.584-1.475 15-4.036v4.036c0 8.271-6.729 15-15 15s-15-6.729-15-15zm0-85.964c0-8.271 6.729-15 15-15s15 6.729 15 15v60c0 8.271-6.729 15-15 15s-15-6.729-15-15zm-90 150v-90c0-12.407 10.093-22.5 22.5-22.5h52.5v52.5c0 16.542 13.458 30 30 30s30-13.458 30-30v-52.5h212v52.5c0 16.542 13.458 30 30 30s30-13.458 30-30v-52.5h52.5c12.406 0 22.5 10.093 22.5 22.5v90z"/></g></svg>