<svg id="Layer_5" enable-background="new 0 0 64 64" height="512" viewBox="0 0 64 64" width="512" xmlns="http://www.w3.org/2000/svg"><g><path d="m13 10.162 1.279 3.838h4.721v-2h-3.279l-2.721-8.162-3.186 9.556-1.196-2.394h-3.618v2h2.382l2.804 5.606z"/><path d="m58 48c2.757 0 5-2.243 5-5v-26c0-2.43-1.744-4.456-4.046-4.904-.462-5.643-5.194-10.096-10.954-10.096-5.728 0-10.442 4.402-10.949 10h-14.051c0-6.065-4.935-11-11-11s-11 4.935-11 11c0 3.468 1.642 6.707 4.364 8.77-1.446 1.283-2.364 3.149-2.364 5.23v1.999 1 2.676c0 3.969 2.383 7.503 6 9.014v2.808c-3.575 2.007-6 5.831-6 10.214v9.289h22.856v-.023c1.037-.054 2.044-.288 2.994-.72l8.136-3.698c.317-.144.603-.334.856-.559h4.158c1.302 0 2.402-.839 2.816-2h15.184c1.654 0 3-1.346 3-3s-1.346-3-3-3h-6c-.552 0-1-.448-1-1v-1zm0-2h-34.512c-1.677-1.9-3.945-3.252-6.488-3.765v-1.47c.499-.167.959-.425 1.364-.765h42.636v3c0 1.654-1.346 3-3 3zm-18 4h-1.764c-2.049 0-3.998.95-5.236 2.476v-4.476h8v2.101c-.323-.066-.658-.101-1-.101zm-13.186 5.623-.51-3.568c-.209-1.46-.69-2.826-1.383-4.055h6.079v5.72zm-13.196-28.624.724-1.447c.17-.341.513-.553.895-.553h5.763c.552 0 1 .449 1 1s-.448 1-1 1zm34.382-22.999c4.963 0 9 4.038 9 9s-4.037 9-9 9-9-4.038-9-9 4.037-9 9-9zm-10.949 10c.507 5.598 5.221 10 10.949 10 5.672 0 10.353-4.316 10.937-9.835 1.194.396 2.063 1.51 2.063 2.835v21h-41.324c.152-.513.224-1.053.168-1.602l-.74-7.399h1.896c1.654 0 3-1.346 3-3s-1.346-3-3-3h-2.101c-.139-.68-.43-1.301-.815-1.851 2.495-1.656 4.176-4.228 4.712-7.148zm-34.051-2c0-4.962 4.037-9 9-9s9 4.038 9 9c0 3.207-1.689 6.106-4.422 7.726-.754-.457-1.633-.726-2.577-.726h-4.001c-.997 0-1.944.213-2.803.59-2.593-1.645-4.197-4.5-4.197-7.59zm2 14c0-2.757 2.243-5 5-5h4.001c1.304 0 2.415.835 2.827 1.999h-1.592c-1.144 0-2.172.635-2.684 1.658l-1.171 2.342h-6.381zm0 5.675v-2.676h2.741c-.479.74-.741 1.599-.741 2.501 0 1.216.493 2.407 1.354 3.268l.646.646v3.043c-2.434-1.353-4-3.921-4-6.782zm4.768 1.679c-.488-.488-.768-1.164-.768-1.854 0-.7.272-1.358.768-1.854l.647-.647h6.68l.76 7.6c.066.653-.163 1.296-.629 1.762-.406.406-.97.64-1.545.64h-2.681v2h2v1.013c-.097-.003-.192-.014-.289-.014-1.298 0-2.543.221-3.711.613v-8.027zm18.254 27.083c-.821.374-1.696.563-2.6.563-2.798 0-5.218-1.801-6.021-4.48l-1.442-4.807-1.916.574 1.442 4.807c.472 1.575 1.384 2.9 2.559 3.906h-15.044v-7.289c0-5.355 4.356-9.711 9.711-9.711 4.801 0 8.934 3.584 9.612 8.338l.593 4.147-1.33.605.828 1.82 5.921-2.692 1.171 2.634zm8.137-3.699-2.831 1.287-1.171-2.635 2.778-1.263c.184-.083.388-.127.631-.127.79 0 1.434.644 1.434 1.434 0 .56-.33 1.072-.841 1.304zm5.841-.738h-3.052c.032-.186.052-.374.052-.566 0-1.457-.915-2.696-2.216-3.194.466-.151.953-.24 1.452-.24h1.764c1.654 0 3 1.346 3 3 0 .552-.448 1-1 1zm12-4h6c.552 0 1 .448 1 1s-.448 1-1 1h-15.101c-.247-1.213-.946-2.253-1.899-2.974v-3.026h8v1c0 1.654 1.346 3 3 3z"/><path d="m57 42h2v2h-2z"/><path d="m49 42h2v2h-2z"/><path d="m53 42h2v2h-2z"/><path d="m42 8h2v2h-2z"/><path d="m46 8h8v2h-8z"/><path d="m42 12h2v2h-2z"/><path d="m46 12h8v2h-8z"/><path d="m42 16h2v2h-2z"/><path d="m46 16h8v2h-8z"/><path d="m36 28h-10v8h10zm-2 6h-6v-4h6z"/><path d="m26 24h10v2h-10z"/><path d="m26 20h10v2h-10z"/><path d="m26 16h10v2h-10z"/><path d="m38 34h2v2h-2z"/><path d="m42 34h17v2h-17z"/><path d="m38 30h21v2h-21z"/><path d="m38 26h21v2h-21z"/></g></svg>