<svg id="Capa_1" enable-background="new 0 0 512 512" height="512" viewBox="0 0 512 512" width="512" xmlns="http://www.w3.org/2000/svg"><g><g><path d="m377 270c-47.563 0-90.659-24.375-115.298-65.2-15.776-26.162-40.4-45.879-69.36-55.547-8.185-2.691-12.159-11.545-9.639-19.233 2.49-7.559 8.671-9.785 14.663-11.938 12.437-4.497 41.572-15.015 64.233-52.705 24.258-40.357 52.032-65.377 115.401-65.377 74.443 0 135 60.557 135 135s-60.557 135-135 135z" fill="#97de3d"/></g><path d="m512 135c0-74.443-60.557-135-135-135v270c74.443 0 135-60.557 135-135z" fill="#59c36a"/><g><path d="m135 512c-74.443 0-135-60.557-135-135s60.557-135 135-135c47.651 0 90.791 24.448 115.4 65.391 15.645 26.03 40.107 45.645 68.877 55.21 6.123 2.051 10.488 7.866 10.488 14.312 0 6.46-3.896 12.275-10.02 14.312-29.048 9.697-53.672 29.414-69.448 55.576-24.638 40.824-67.734 65.199-115.297 65.199z" fill="#fed843"/></g><path d="m250.298 446.8c15.776-26.162 40.4-45.879 69.448-55.576 6.123-2.036 10.02-7.852 10.02-14.312 0-6.445-4.365-12.261-10.488-14.312-28.77-9.565-53.232-29.18-68.877-55.21-24.61-40.942-67.75-65.39-115.401-65.39v270c47.563 0 90.659-24.375 115.298-65.2z" fill="#fabe2c"/><g id="Right_2_"><g><g><g><g><path d="m90 120c-33.091 0-60-26.909-60-60s26.909-60 60-60 60 26.909 60 60-26.909 60-60 60z" fill="#ffe6b3"/></g></g></g></g><g><path d="m165 210h-150c-8.291 0-15-6.709-15-15 0-41.353 33.647-75 75-75h30c41.353 0 75 33.647 75 75 0 8.291-6.709 15-15 15z" fill="#fff5f5"/></g><g><path d="m362 180c-3.838 0-7.676-1.465-10.605-4.395l-31.816-31.816c-5.859-5.859-5.859-15.352 0-21.211s15.352-5.859 21.211 0l21.21 21.211 51.211-51.211c5.859-5.859 15.352-5.859 21.211 0s5.859 15.352 0 21.211l-61.816 61.816c-2.93 2.93-6.768 4.395-10.606 4.395z" fill="#474f54"/></g></g><g><path d="m180 347c0 18.9-12.001 36-29.7 42.299 0 8.401-6.899 16.501-15.3 16.501-8.101 0-15-5.4-15-13.801 0-12.599 5.7-23.101 15-28.5 1.5-.899 3.3-1.8 5.099-2.401 6-2.098 9.901-7.798 9.901-14.099 0-8.401-6.599-15-15-15s-15 6.599-15 15-6.599 15-15 15-15-6.599-15-15c0-24.901 20.099-45 45-45s45 20.1 45 45.001z" fill="#474f54"/></g><g><circle cx="135" cy="437" fill="#474f54" r="15"/></g><path d="m150 437c0-8.284-6.716-15-15-15v30c8.284 0 15-6.716 15-15z" fill="#32393f"/><path d="m180 347c0 18.9-12.001 36-29.7 42.299 0 8.401-6.899 16.501-15.3 16.501v-42.3c1.5-.899 3.3-1.8 5.099-2.401 6-2.098 9.901-7.798 9.901-14.099 0-8.401-6.599-15-15-15v-30c24.901 0 45 20.099 45 45z" fill="#32393f"/><path d="m90 120v90h75c8.291 0 15-6.709 15-15 0-41.353-33.647-75-75-75z" fill="#efe2dd"/><path d="m150 60c0-33.091-26.909-60-60-60v120c33.091 0 60-26.909 60-60z" fill="#ffca80"/><g><g><g><g><path d="m422 422c-33.091 0-60-26.909-60-60s26.909-60 60-60 60 26.909 60 60-26.909 60-60 60z" fill="#ffe6b3"/></g></g></g></g><g><path d="m497 512h-150c-8.291 0-15-6.709-15-15 0-41.353 33.647-75 75-75h30c41.353 0 75 33.647 75 75 0 8.291-6.709 15-15 15z" fill="#fff5f5"/></g><path d="m422 422v90h75c8.291 0 15-6.709 15-15 0-41.353-33.647-75-75-75z" fill="#efe2dd"/><path d="m482 362c0-33.091-26.909-60-60-60v120c33.091 0 60-26.909 60-60z" fill="#ffca80"/><path d="m377 171.211 57.422-57.422c5.859-5.859 5.859-15.352 0-21.211s-15.352-5.859-21.211 0l-36.211 36.211z" fill="#32393f"/></g></svg>