<svg id="Capa_1" enable-background="new 0 0 511.997 511.997" height="512" viewBox="0 0 511.997 511.997" width="512" xmlns="http://www.w3.org/2000/svg"><g><g><g><path d="m151.859 498.96c-2.659 0-5.352-.707-7.789-2.192-7.075-4.31-9.316-13.538-5.007-20.612l62.057-86.096 43.943-87.89c2.711-4.45 7.537-7.174 12.748-7.196h.063c5.188 0 10.008 2.68 12.744 7.089l108 173.986c4.369 7.039 2.205 16.285-4.834 20.654-7.038 4.368-16.287 2.203-20.654-4.834l-45.241-86.49-49.896-66.773-93.309 153.156c-2.825 4.638-7.764 7.198-12.825 7.198z" fill="#e3e0e4"/></g><g fill="#d4cfd5"><path d="m257.806 294.978c-5.192 0-10.009 2.706-12.71 7.14l-1.22 2.002v-.003l-7.488 12.294-97.322 159.746c-4.31 7.07-2.07 16.3 5 20.61 2.44 1.49 5.13 2.19 7.79 2.19 2.63 0 5.24-.69 7.52-2.02-.11-.05-.21-.11-.31-.17-7.07-4.31-9.31-13.54-5-20.61l72.164-118.45c1.126-1.848 3.534-2.495 5.397-1.393 3.807 2.254 7.916 4.051 12.25 5.313l4.438-12.588-2.344-23.733 14.097-23.139c1.32-2.19 3.16-3.95 5.3-5.18-2.24-1.3-4.82-2.01-7.49-2.01h-.072z"/><path d="m368.126 491.868-81.423-131.177c-1.143-1.842-.644-4.291 1.179-5.465 3.804-2.452 7.28-5.37 10.344-8.678l-24.35-39.23v32.708l-.88-1.418-7.43 12.2 87.56 141.06c4.29 6.9 13.27 9.11 20.25 5.08-2.08-1.19-3.9-2.9-5.25-5.08z"/></g><g><path d="m258.874 496.594c-8.284 0-15-6.709-15-14.985l4.688-109.25-4.688-187.164c0-8.276 6.716-14.985 15-14.985s15 6.709 15 14.985v132.318l-5.474 29.994 5.474 14.12v119.98c0 8.277-6.716 14.987-15 14.987z" fill="#efedef"/></g><path d="m270.617 302.068c-2.375-3.836-6.339-6.361-10.74-6.954v-109.916c0-5.34 2.79-10.03 7-12.68-2.31-1.46-5.06-2.31-8-2.31-8.29 0-15 6.71-15 14.99v118.92 57.51 119.98c0 8.28 6.71 14.99 15 14.99 2.94 0 5.69-.85 8-2.31-4.21-2.65-7-7.34-7-12.68v-114.081c0-2.09 1.62-3.788 3.703-3.969 3.058-.265 6.044-.787 8.937-1.55.46-.12.91-.24 1.36-.38v-54.31z" fill="#e3e0e4"/><path d="m128.644 154.811-58.311-28.282c-30.797-11.198-46.706-38.19-35.489-68.978l.766-1.277c6.194-17.001 13.965-29.844 29.694-35.692 12.733-4.734 27.148-5.142 40.914-.137l63.028 22.918z" fill="#91dafa"/><path d="m134.206 139.558-5.56 15.25-62.97-22.89c-30.79-11.2-46.67-45.25-35.45-76.04 6.78-18.63 21.93-31.79 39.66-36.79-8.69 6.64-15.64 15.76-19.66 26.79-11.22 30.79 4.66 64.84 35.45 76.04z" fill="#75cff9"/><path d="m134.206 30.622-1.978 60.881-35.205 57.877-30.496-10.031c-5.19-1.89-7.86-7.63-5.97-12.82l-5.404-4.912 39.183-107.539c1.89-5.19 7.62-7.86 12.8-5.98l12.311 4.477z" fill="#30569f"/><path d="m119.446 12.578-41.571 114.108c-.567 1.556-2.287 2.358-3.844 1.793l-18.875-6.861-2.74 7.51c-1.89 5.19.78 10.93 5.97 12.82l29.22 10.62 36.708-55.954 12.052-77.886z" fill="#26447e"/><path d="m289.512 310.159c0 7.765-2.894 14.855-7.664 20.251-5.614 6.352-13.823 8.198-22.972 8.198-16.921 0-27.62-11.544-27.62-28.449 0-10.362 2.133-19.522 10.02-25.059 4.98-3.496 11.048-5.549 17.597-5.549 16.922 0 30.639 13.704 30.639 30.608z" fill="#d16161"/><path d="m283.346 328.578c-5.59 7.4-14.47 12.19-24.47 12.19-16.92 0-30.64-13.7-30.64-30.61 0-11.27 6.1-21.12 15.18-26.43-3.88 5.13-6.18 11.51-6.18 18.43 0 16.91 13.72 30.61 30.64 30.61 5.641 0 10.93-1.53 15.47-4.19z" fill="#ca4646"/><g fill="#d16161"><path d="m378.121 502.572-28.34-1.66c-.685 0-4.285.896-4.851.511-2.548-1.733-11.617-4.604-11.617-10.851l1.532-3.112c0-7.732 2.882-13.96 10.614-13.96h33c7.732 0 14 6.268 14 14v2.998c0 .336-.012.67-.035 1-.514 7.265-6.907 11.074-14.303 11.074z"/><path d="m273.874 501.934-27.242.638c-7.732 0-15.064-4.382-15.064-12.114l2.809-1.5c0-7.732.265-15.497 7.997-15.497h33c7.732 0 14 6.268 14 14v2.998c0 .336-.012.67-.035 1-.513 7.264-8.07 10.475-15.465 10.475z"/><path d="m167.27 502.232-30.399.851c-7.732 0-12.835-4.894-12.835-12.626v-2.998c0-7.732 3.691-13.999 11.423-13.999h33c7.732 0 14 6.268 14 14v2.998c0 .336-.012.67-.035 1-.514 7.265-7.758 10.774-15.154 10.774z"/></g><path d="m392.416 491.498c-.51 7.26-6.57 13-13.96 13h-33c-7.73 0-14-6.27-14-14v-3c0-7.73 6.27-14 14-14h.04c-.03.33-.04.66-.04 1v3c0 7.73 6.27 14 14 14z" fill="#ca4646"/><path d="m289.336 491.458c-.51 7.26-6.57 13-13.96 13h-33c-7.73 0-14-6.27-14-14v-3c0-7.73 6.27-14 14-14h.04c-.03.33-.04.66-.04 1v3c0 7.73 6.27 14 14 14z" fill="#ca4646"/><path d="m182.416 491.458c-.51 7.26-6.57 13-13.96 13h-33c-7.73 0-14-6.27-14-14v-3c0-7.73 6.27-14 14-14h.04c-.03.33-.04.66-.04 1v3c0 7.73 6.27 14 14 14z" fill="#ca4646"/><path d="m328.704 97.513h42.197v26.982h-42.197z" fill="#efedef" transform="matrix(.342 -.94 .94 .342 125.958 401.826)"/><path d="m329.578 76.969 2.14-8.1c1.322-3.629 5.335-5.5 8.964-4.18l4.53-.907 43.19 15.704c3.633 1.321 5.506 5.337 4.183 8.969l-2.725 7.48-2.993 2.551c-1.322 3.629-5.335 5.5-8.965 4.18l-44.142-16.728c-3.632-1.321-5.505-5.337-4.182-8.969z" fill="#d16161"/><path d="m389.865 95.937-1.72 4.71c-1.32 3.62-5.33 5.5-8.96 4.18l-47.9-17.42c-3.63-1.32-5.51-5.34-4.18-8.97l4.44-12.19c1.32-3.62 5.33-5.5 8.96-4.18l4.71 1.71-3.751 10.3c-.756 2.076.315 4.373 2.391 5.128z" fill="#ca4646"/><path d="m438.34 234.481-47.217-24.595-49.659-10.63 19.41-53.275 63.053 22.927 29.734 21.323z" fill="#efedef"/><path d="m341.464 212.57-86.321-26.306c-5.19-1.887-7.865-7.625-5.975-12.813l24.403-66.981c1.889-5.184 7.621-7.857 12.806-5.971l79.969 29.078 6.137 5.863c5.19 1.887 4.188 5.354 2.298 10.542l-20.511 60.618c-1.888 5.182-7.62 7.855-12.806 5.97z" fill="#30569f"/><path d="m229.25 177.448-75.947-13.671 40.603-111.447 92.43 33.609 3.322 5.564c5.19 1.887 7.865 7.625 5.975 12.813l-29.567 89.836c-1.888 5.184-31.63-14.819-36.816-16.704z" fill="#30569f"/><path d="m208.576 61.648-38.005 103.974c-1.89 5.18-7.62 7.85-12.81 5.97l-66.638-19.829 7.968-5.782-5.32-10.332 42.596-116.921 62.99 22.909 6.404 7.488c5.19 1.88 4.706 7.333 2.815 12.523z" fill="#efedef"/><path d="m213.566 55.248c-.09.67-.26 1.35-.5 2.01l-41.16 112.97z" fill="#efedef"/><path d="m457.747 181.208-33.82-12.3-11.872 32.605c-.756 2.075-3.05 3.145-5.125 2.391l-42.843-15.576-6.16 16.91 46.6 16.95 2.631.956 14.279 5.194.001-.003 16.899 6.143z" fill="#e3e0e4"/><path d="m373.856 132.308-7.51-2.73-19.169 52.6h-.001l-4.551 12.485c-.756 2.074-3.05 3.144-5.125 2.389l-64.014-23.274-6.16 16.92 75.3 27.37c5.18 1.89 10.92-.78 12.8-5.97l24.41-66.98c1.891-5.19-.79-10.92-5.98-12.81z" fill="#26447e"/><path d="m293.856 88.668-7.52-2.73-29.767 81.691-.003-.001-4.68 12.84-3-1.09-70.92-25.78-6.16 16.91 81.45 29.62c5.19 1.88 10.92-.79 12.81-5.98l33.76-92.66c1.891-5.19-.78-10.93-5.97-12.82z" fill="#26447e"/><path d="m213.566 55.248-41.66 114.98-.1.28-.66 1.81c-1.89 5.18-7.62 7.85-12.81 5.97l-70.73-25.72 6.16-16.92 59.446 21.621c2.078.756 4.375-.318 5.128-2.397l41.016-113.234 7.73 2.81c4.53 1.64 7.141 6.21 6.48 10.8z" fill="#e3e0e4"/><path d="m52.064 274.794-8.79-17.578c-.097-.194-.254-.35-.447-.447l-17.579-8.789c-.737-.369-.737-1.42 0-1.789l17.579-8.789c.194-.097.35-.254.447-.447l8.79-17.578c.369-.737 1.42-.737 1.789 0l8.79 17.578c.097.194.254.35.447.447l17.579 8.789c.737.369.737 1.42 0 1.789l-17.579 8.789c-.194.097-.35.254-.447.447l-8.79 17.578c-.369.737-1.42.737-1.789 0z" fill="#f3d332"/><path d="m444.064 387.785-8.79-17.578c-.097-.194-.254-.35-.447-.447l-17.579-8.789c-.737-.368-.737-1.42 0-1.789l17.579-8.789c.194-.097.35-.254.447-.447l8.79-17.578c.369-.737 1.42-.737 1.789 0l8.79 17.578c.097.194.254.35.447.447l17.579 8.789c.737.368.737 1.42 0 1.789l-17.579 8.789c-.194.097-.35.254-.447.447l-8.79 17.578c-.369.737-1.42.737-1.789 0z" fill="#f3d332"/><path d="m314.866 207.978-47.54-17.28-1.26 3.45c-1.89 5.19-7.62 7.86-12.81 5.98l-44.68-16.25c8.84-17.98 27.04-30.57 48.21-31.35.69-.03 1.39-.04 2.09-.04 7.38 0 14.43 1.44 20.89 4.05 20.42 8.23 34.9 28.16 35.1 51.44z" fill="#26447e"/><path d="m294.874 208.482c0 6.935-1.961 13.411-5.359 18.906-6.343 10.257-17.691 12.205-30.638 12.205-19.882 0-30.641-11.734-30.641-31.615 0-11.626.151-21.462 8.705-28.043 6.073-4.672 13.679-7.45 21.934-7.45 19.881 0 35.999 16.116 35.999 35.997z" fill="#e3e0e4"/><path d="m291.106 224.528c-5.9 11.83-18.12 19.95-32.23 19.95-19.89 0-36-16.12-36-36 0-13.22 7.13-24.78 17.76-31.03-2.41 4.83-3.76 10.27-3.76 16.03 0 19.88 16.11 36 36 36 6.65 0 12.88-1.8 18.23-4.95z" fill="#d4cfd5"/><path d="m447.368 247.699-15.139-3.221c-6.228-2.264-9.438-9.15-7.17-15.375l-2.249-4.543 18.717-51.374c2.266-6.221 9.145-9.428 15.368-7.165l16.861 6.131 2.644 6.739c6.228 2.264 9.438 9.15 7.17 15.375l-20.833 46.268c-2.267 6.22-9.146 9.428-15.369 7.165z" fill="#30569f"/><path d="m486.566 189.578-20.77 57.01c-2.27 6.22-9.15 9.43-15.37 7.16l-22.5-8.18c-6.23-2.26-9.44-9.15-7.17-15.37l2.05-5.64 24.373 8.864c2.075.755 4.37-.315 5.125-2.39l21.451-58.884 5.64 2.05c6.231 2.27 9.441 9.15 7.171 15.38z" fill="#26447e"/><circle cx="258.874" cy="310.159" fill="#ca4646" r="7.354"/></g><g><path d="m493.583 177.233c-2.201-4.721-6.11-8.3-11.006-10.081l-22.501-8.182c-8.302-3.019-17.339-.016-22.339 6.753l-50.173-18.243c1.52-4.335 1.298-9.004-.647-13.175-1.976-4.236-5.483-7.449-9.877-9.046l-8.363-3.041 4.33-11.886 4.23 1.538c1.629.593 3.297.874 4.938.874 5.922 0 11.495-3.658 13.635-9.534l4.44-12.187c1.326-3.64 1.154-7.578-.482-11.088-1.637-3.51-4.543-6.172-8.185-7.497l-47.896-17.416c-7.505-2.73-15.839 1.155-18.574 8.661l-4.439 12.186c-1.326 3.64-1.155 7.578.482 11.088s4.544 6.173 8.185 7.497l4.212 1.532-4.33 11.886-20.828-7.573c1.022-7.938-3.528-15.828-11.357-18.68l-22.127-8.043c-3.894-1.416-8.196.595-9.611 4.486-1.415 3.893.594 8.196 4.486 9.611l22.123 8.042c1.293.471 1.961 1.91 1.489 3.207l-1.25 3.431c-.002.006-.005.011-.007.017s-.003.011-.005.017l-23.184 63.647c-3.048-.679-6.211-1.048-9.46-1.048-13.902 0-26.292 6.563-34.261 16.743l-43.191-15.704 35.469-97.355 18.431 6.7c.846.308 1.711.453 2.562.453 3.064 0 5.942-1.893 7.05-4.939 1.415-3.893-.594-8.196-4.486-9.611l-19.292-7.013c.066-2.664-.466-5.328-1.625-7.814-1.976-4.236-5.483-7.449-9.877-9.047l-99.95-36.346c-8.328-3.029-17.475.696-21.468 8.345-27.961-.987-53.896 15.704-64.377 42.115-1.527 3.85.355 8.209 4.205 9.737.908.36 1.844.531 2.765.531 2.983 0 5.806-1.793 6.974-4.736 7.478-18.845 25.105-31.297 44.76-32.572l-32.472 89.128c-7.244-6.923-12.34-15.834-14.645-25.833-.933-4.038-4.96-6.555-8.994-5.623-4.036.931-6.554 4.957-5.623 8.993 3.478 15.083 11.891 28.247 23.912 37.636-.836 3.744-.437 7.635 1.211 11.17 1.976 4.236 5.483 7.449 9.877 9.047l99.949 36.343c1.967.715 3.979 1.054 5.96 1.054 5.302 0 10.37-2.434 13.689-6.586l42.063 15.294c-1.368 4.219-2.116 8.715-2.116 13.383 0 15.757 8.423 29.583 21.003 37.215v33.716c-9.474 6.94-15.642 18.135-15.642 30.746 0 4.744.879 9.284 2.471 13.477l-34.333 56.354c-2.154 3.538-1.034 8.152 2.503 10.307 1.219.743 2.565 1.096 3.896 1.096 2.529 0 4.999-1.28 6.412-3.599l30.649-50.307c3.594 3.486 7.87 6.269 12.607 8.134l-73.334 120.342h-17.546l29.401-48.258c2.154-3.538 1.034-8.152-2.503-10.307s-8.151-1.036-10.308 2.502l-34.156 56.063h-1.036c-11.855 0-21.5 9.645-21.5 21.5v2.998c0 11.855 9.645 21.5 21.5 21.5h33c11.855 0 21.5-9.645 21.5-21.5v-2.998c0-5.386-2.005-10.303-5.29-14.079l51.708-84.872v78.319c-8.943 2.604-15.503 10.86-15.503 20.632v2.998c0 11.855 9.645 21.5 21.5 21.5h33c11.855 0 21.5-9.645 21.5-21.5v-2.998c0-9.77-6.557-18.024-15.497-20.631v-76.336l50.099 80.708c-4.593 3.946-7.517 9.782-7.517 16.298v2.998c0 11.855 9.645 21.5 21.5 21.5h33c11.855 0 21.5-9.645 21.5-21.5v-2.998c0-10.874-8.122-19.865-18.613-21.283l-87.478-140.924c2.019-4.642 3.145-9.758 3.145-15.134 0-12.609-6.165-23.801-15.636-30.742v-33.724c11.799-7.161 19.928-19.774 20.89-34.316l37.795 13.743c1.967.715 3.979 1.054 5.96 1.054 7.084 0 13.75-4.341 16.383-11.325l50.164 18.24c-.204 3.215.391 6.447 1.791 9.448 2.201 4.721 6.11 8.301 11.006 10.081 6.293 1.867 22.815 9.433 29.142 9.356 7.963 0 15.459-4.918 18.338-12.821l4.565-12.531c1.418-3.892-.588-8.196-4.479-9.614-3.894-1.418-8.195.587-9.614 4.479l-4.565 12.531c-.848 2.326-3.427 3.532-5.759 2.685l-22.502-8.183c-1.128-.41-2.029-1.235-2.536-2.323-.508-1.088-.561-2.308-.149-3.436l20.087-55.136c.001-.002.002-.003.002-.005.001-.003.001-.006.003-.009l.678-1.861c.848-2.327 3.427-3.531 5.758-2.685l22.501 8.182c1.129.411 2.03 1.236 2.537 2.324.508 1.088.561 2.309.15 3.436l-4.209 11.552c-1.418 3.892.588 8.196 4.479 9.614 3.892 1.417 8.196-.588 9.614-4.479l4.209-11.553c1.782-4.892 1.551-10.187-.65-14.907zm-433.42-43.629c-.163-.35-.391-1.063-.083-1.907l41.919-115.057c.368-1.011 1.327-1.641 2.347-1.641.282 0 .569.048.851.15l22.172 8.062-43.627 119.745-22.17-8.062c-.846-.307-1.246-.94-1.409-1.29zm101.359 37.634-63.683-23.156 43.626-119.744 63.68 23.155c.846.308 1.245.94 1.409 1.291.163.35.391 1.063.083 1.907l-.633 1.738c-.008.023-.02.043-.028.066-.008.022-.013.045-.021.067l-41.237 113.186c-.469 1.29-1.902 1.961-3.196 1.49zm256.05 47.486-49.408-17.965 14.275-39.182 49.407 17.965zm-78.538-149.434 46.95 17.071-4.095 11.239c-7.87-2.862-40.393-14.687-46.949-17.071zm8.616 31.822 11.26 4.095-4.33 11.886-11.26-4.095zm-62.647 237.346 79.171 127.542h-17.654l-74.417-119.883c4.812-1.691 9.187-4.314 12.9-7.659zm-109.426 151.999c0 3.584-2.916 6.5-6.5 6.5h-33c-3.584 0-6.5-2.916-6.5-6.5v-2.998c0-3.584 2.916-6.5 6.5-6.5 3.926.006 28.851-.003 33 0 3.584 0 6.5 2.916 6.5 6.5zm106.915 0c0 3.584-2.916 6.5-6.5 6.5h-33c-3.584 0-6.5-2.916-6.5-6.5v-2.998c0-3.584 2.916-6.5 6.5-6.5h33c3.584 0 6.5 2.916 6.5 6.5zm-15.497-24.497h-15v-102.072l6.679-10.964 8.321 13.404zm118.582 24.537c0 3.584-2.916 6.5-6.5 6.5h-33c-3.584 0-6.5-2.916-6.5-6.5v-2.998c0-3.584 2.916-6.5 6.5-6.5h33c3.584 0 6.5 2.916 6.5 6.5zm-126.085-157.231c-12.759 0-23.139-10.366-23.139-23.108s10.38-23.108 23.139-23.108 23.139 10.366 23.139 23.108-10.38 23.108-23.139 23.108zm7.503-60.471c-2.427-.486-4.935-.745-7.503-.745-2.566 0-5.072.258-7.497.743v-21.476c2.438.425 4.94.66 7.497.66 2.56 0 5.063-.235 7.503-.661zm-7.503-35.817c-15.715 0-28.5-12.784-28.5-28.497s12.785-28.497 28.5-28.497 28.5 12.784 28.5 28.497-12.785 28.497-28.5 28.497zm86.313-25.955-45.088-16.395c-3.201-9.498-9.592-17.534-17.9-22.834l20.855-57.253c11.249 4.09 58.509 21.275 68.242 24.815.845.307 1.245.939 1.408 1.29.163.35.391 1.063.083 1.907l-24.403 66.981c-.469 1.291-1.9 1.96-3.197 1.489z"/><path d="m76.577 406.188h-2.946v-2.946c0-4.142-3.357-7.5-7.5-7.5s-7.5 3.358-7.5 7.5v2.946h-2.947c-4.143 0-7.5 3.358-7.5 7.5s3.357 7.5 7.5 7.5h2.947v2.946c0 4.142 3.357 7.5 7.5 7.5s7.5-3.358 7.5-7.5v-2.946h2.946c4.143 0 7.5-3.358 7.5-7.5s-3.357-7.5-7.5-7.5z"/><path d="m444.683 60.217h2.947v2.946c0 4.142 3.357 7.5 7.5 7.5s7.5-3.358 7.5-7.5v-2.946h2.946c4.143 0 7.5-3.358 7.5-7.5s-3.357-7.5-7.5-7.5h-2.946v-2.946c0-4.142-3.357-7.5-7.5-7.5s-7.5 3.358-7.5 7.5v2.946h-2.947c-4.143 0-7.5 3.358-7.5 7.5s3.358 7.5 7.5 7.5z"/><path d="m86.43 240.376-17.43-8.715-8.715-17.429c-1.271-2.541-3.867-4.146-6.708-4.146s-5.438 1.605-6.708 4.146l-8.715 17.429-17.431 8.714c-2.541 1.271-4.146 3.868-4.146 6.708s1.605 5.438 4.146 6.708l17.431 8.714 8.715 17.429c1.271 2.541 3.867 4.146 6.708 4.146s5.438-1.605 6.708-4.146l8.715-17.427 17.431-8.714c2.541-1.271 4.146-3.868 4.146-6.708s-1.606-5.439-4.147-6.709zm-26.374 9.832c-1.452.726-2.629 1.903-3.354 3.354l-3.125 6.249-3.125-6.249c-.726-1.452-1.902-2.628-3.354-3.354l-6.249-3.124 6.249-3.124c1.452-.726 2.629-1.903 3.354-3.354l3.125-6.25 3.125 6.25c.726 1.452 1.902 2.628 3.354 3.354l6.249 3.124z"/><path d="m478.43 353.367-17.43-8.715-8.715-17.429c-1.271-2.541-3.867-4.146-6.708-4.146s-5.438 1.605-6.708 4.146l-8.715 17.429-17.431 8.714c-2.541 1.271-4.146 3.868-4.146 6.708s1.605 5.438 4.146 6.708l17.431 8.714 8.715 17.429c1.271 2.541 3.867 4.146 6.708 4.146s5.438-1.605 6.708-4.146l8.715-17.427 17.431-8.714c2.541-1.271 4.146-3.868 4.146-6.708s-1.606-5.439-4.147-6.709zm-26.374 9.832c-1.452.726-2.629 1.903-3.354 3.354l-3.125 6.249-3.125-6.249c-.726-1.452-1.902-2.628-3.354-3.354l-6.249-3.124 6.249-3.124c1.452-.726 2.629-1.903 3.354-3.354l3.125-6.249 3.125 6.249c.726 1.452 1.902 2.628 3.354 3.354l6.249 3.124z"/><circle cx="259.492" cy="310.157" r="7.5"/></g></g></svg>